<svg width="18" height="18" viewBox="0 0 18 18" fill="none" xmlns="http://www.w3.org/2000/svg">
    <path fill-rule="evenodd" clip-rule="evenodd"
        d="M9 0C8.2881 0 7.605 0.282586 7.101 0.786561L6.2973 1.59022C6.13108 1.75619 5.90579 1.84941 5.6709 1.84941H4.53599C4.18316 1.84929 3.83377 1.91869 3.50777 2.05366C3.18178 2.18862 2.88557 2.38649 2.63609 2.63596C2.3866 2.88544 2.18871 3.18163 2.05375 3.50761C1.91878 3.83359 1.84937 4.18296 1.84949 4.53578V5.67152C1.84939 5.90638 1.75618 6.13163 1.59029 6.29789L0.786589 7.10155C0.282944 7.60517 0 8.28823 0 9.00046C0 9.71268 0.282944 10.3957 0.786589 10.8994L1.59029 11.703C1.75627 11.8692 1.84949 12.0945 1.84949 12.3294V13.4651C1.84949 14.1774 2.13244 14.8604 2.63609 15.364C3.13973 15.8677 3.82283 16.1506 4.53509 16.1506H5.6709C5.9058 16.1506 6.1317 16.2442 6.2973 16.4098L7.101 17.2135C7.60465 17.7171 8.28774 18 9 18C9.71226 18 10.3954 17.7171 10.899 17.2135L11.7027 16.4098C11.8689 16.2438 12.0942 16.1506 12.3291 16.1506H13.4649C14.1772 16.1506 14.8603 15.8677 15.3639 15.364C15.8676 14.8604 16.1505 14.1774 16.1505 13.4651V12.3294C16.1505 12.0945 16.2441 11.8686 16.4097 11.703L17.2134 10.8994C17.7171 10.3957 18 9.71268 18 9.00046C18 8.28823 17.7171 7.60517 17.2134 7.10155L16.4097 6.29789C16.2437 6.13168 16.1505 5.9064 16.1505 5.67152V4.53578C16.1505 3.82355 15.8676 3.14049 15.3639 2.63686C14.8603 2.13324 14.1772 1.85031 13.4649 1.85031H12.3291C12.0942 1.85031 11.8689 1.75709 11.7027 1.59112L10.899 0.787461C10.6497 0.53793 10.3537 0.339953 10.0278 0.204839C9.702 0.0697244 9.35274 0.000119737 9 0ZM12.3147 6.95666C12.4026 6.87411 12.473 6.77473 12.5218 6.66444C12.5705 6.55414 12.5966 6.43517 12.5985 6.31459C12.6004 6.19402 12.578 6.0743 12.5327 5.96254C12.4874 5.85078 12.4201 5.74927 12.3348 5.66403C12.2495 5.57879 12.1479 5.51156 12.0361 5.46634C11.9243 5.42112 11.8046 5.39882 11.684 5.40078C11.5634 5.40274 11.4445 5.42891 11.3342 5.47774C11.2239 5.52657 11.1246 5.59706 11.0421 5.68502L7.2144 9.51253L6.0651 8.36329C5.89634 8.19442 5.66741 8.0995 5.42866 8.09942C5.18992 8.09933 4.96092 8.19409 4.79204 8.36284C4.62317 8.53159 4.52825 8.76051 4.52816 8.99924C4.52808 9.23797 4.62284 9.46696 4.79159 9.63583L6.5781 11.4213C6.74687 11.5901 6.97575 11.6848 7.2144 11.6848C7.45305 11.6848 7.68192 11.5901 7.8507 11.4213L12.3147 6.95666Z"
        fill="#52B522" />
    <path
        d="M12.3147 6.95666C12.4026 6.87411 12.473 6.77473 12.5218 6.66444C12.5705 6.55414 12.5966 6.43517 12.5985 6.31459C12.6004 6.19402 12.578 6.0743 12.5327 5.96254C12.4874 5.85078 12.4201 5.74927 12.3348 5.66403C12.2495 5.57879 12.1479 5.51156 12.0361 5.46634C11.9243 5.42112 11.8046 5.39882 11.684 5.40078C11.5634 5.40274 11.4445 5.42891 11.3342 5.47774C11.2239 5.52657 11.1246 5.59706 11.0421 5.68502L7.2144 9.51253L6.0651 8.36329C5.89634 8.19442 5.66741 8.0995 5.42866 8.09942C5.18992 8.09933 4.96092 8.19409 4.79204 8.36284C4.62317 8.53159 4.52825 8.76051 4.52816 8.99924C4.52808 9.23797 4.62284 9.46696 4.79159 9.63583L6.5781 11.4213C6.74687 11.5901 6.97575 11.6848 7.2144 11.6848C7.45305 11.6848 7.68192 11.5901 7.8507 11.4213L12.3147 6.95666Z"
        fill="white" />
</svg>
    