<svg width="20" height="20" viewBox="0 0 20 20" fill="none" xmlns="http://www.w3.org/2000/svg">
    <path fill-rule="evenodd" clip-rule="evenodd"
        d="M0 10C0 4.477 4.477 0 10 0C15.523 0 20 4.477 20 10C20 15.523 15.523 20 10 20C4.477 20 0 15.523 0 10ZM13.707 8.707C13.8892 8.5184 13.99 8.2658 13.9877 8.0036C13.9854 7.7414 13.8802 7.49059 13.6948 7.30518C13.5094 7.11977 13.2586 7.0146 12.9964 7.01233C12.7342 7.01005 12.4816 7.11084 12.293 7.293L9 10.586L7.207 8.793C7.0184 8.61084 6.7658 8.51005 6.5036 8.51233C6.2414 8.5146 5.99059 8.61977 5.80518 8.80518C5.61977 8.99059 5.5146 9.2414 5.51233 9.5036C5.51005 9.7658 5.61084 10.0184 5.793 10.207L8.293 12.707C8.48053 12.8945 8.73484 12.9998 9 12.9998C9.26516 12.9998 9.51947 12.8945 9.707 12.707L13.707 8.707Z"
        fill="#68CA38" />
    <path
        d="M13.707 8.707C13.8892 8.5184 13.99 8.2658 13.9877 8.0036C13.9854 7.7414 13.8802 7.49059 13.6948 7.30518C13.5094 7.11977 13.2586 7.0146 12.9964 7.01233C12.7342 7.01005 12.4816 7.11084 12.293 7.293L9 10.586L7.207 8.793C7.0184 8.61084 6.7658 8.51005 6.5036 8.51233C6.2414 8.5146 5.99059 8.61977 5.80518 8.80518C5.61977 8.99059 5.5146 9.2414 5.51233 9.5036C5.51005 9.7658 5.61084 10.0184 5.793 10.207L8.293 12.707C8.48053 12.8945 8.73484 12.9998 9 12.9998C9.26516 12.9998 9.51947 12.8945 9.707 12.707L13.707 8.707Z"
        fill="white" />
</svg>
    